<svg width="90" height="64" viewBox="0 0 90 64" fill="none" xmlns="http://www.w3.org/2000/svg">
<path d="M24.3843 7.39249V44.14L13.1243 13.46C12.7656 12.485 13.2706 11.4037 14.2481 11.0512L24.3843 7.39249Z" fill="#00A9A8"/>
<path d="M76.876 13.46L65.6348 44.0887V7.39999L75.7523 11.0512C76.7298 11.4037 77.2335 12.485 76.876 13.46Z" fill="#00A9A8"/>
<path d="M60.0098 0H30.0098C28.9748 0 28.1348 0.84 28.1348 1.875V62.125C28.1348 63.16 28.9748 64 30.0098 64H60.0098C61.0448 64 61.8848 63.16 61.8848 62.125V1.875C61.8848 0.84 61.0448 0 60.0098 0ZM48.7598 52.75H37.5098C36.4748 52.75 35.6348 51.91 35.6348 50.875C35.6348 49.84 36.4748 49 37.5098 49H48.7598C49.7948 49 50.6348 49.84 50.6348 50.875C50.6348 51.91 49.7948 52.75 48.7598 52.75ZM52.5098 45.25H37.5098C36.4748 45.25 35.6348 44.41 35.6348 43.375C35.6348 42.34 36.4748 41.5 37.5098 41.5H52.5098C53.5448 41.5 54.3848 42.34 54.3848 43.375C54.3848 44.41 53.5448 45.25 52.5098 45.25ZM52.5098 37.75H41.2598C40.2248 37.75 39.3848 36.91 39.3848 35.875C39.3848 34.84 40.2248 34 41.2598 34H52.5098C53.5448 34 54.3848 34.84 54.3848 35.875C54.3848 36.91 53.5448 37.75 52.5098 37.75ZM54.3848 24.625C54.3848 25.66 53.5448 26.5 52.5098 26.5H37.5098C36.4748 26.5 35.6348 25.66 35.6348 24.625V13.375C35.6348 12.34 36.4748 11.5 37.5098 11.5H52.5098C53.5448 11.5 54.3848 12.34 54.3848 13.375V24.625Z" fill="#00A9A8"/>
<path d="M39.3848 15.25H50.6348V22.75H39.3848V15.25Z" fill="#00A9A8"/>
</svg>
