<svg width="73" height="73" viewBox="0 0 73 73" fill="none" xmlns="http://www.w3.org/2000/svg">
<path d="M36.2 35.7815C38.8969 35.7815 41.2322 34.8142 43.1403 32.9058C45.0484 30.9977 46.0157 28.663 46.0157 25.9658C46.0157 23.2696 45.0484 20.9346 43.14 19.0259C41.2316 17.1181 38.8966 16.1508 36.2 16.1508C33.5028 16.1508 31.1682 17.1181 29.2601 19.0262C27.352 20.9343 26.3844 23.2693 26.3844 25.9658C26.3844 28.663 27.352 30.998 29.2604 32.9061C31.1688 34.8139 33.5038 35.7815 36.2 35.7815Z" fill="#00A9A8"/>
<path d="M53.1177 47.4331C53.0626 46.639 52.9513 45.7728 52.7875 44.8581C52.6221 43.9365 52.4091 43.0653 52.1541 42.2691C51.8908 41.4461 51.5326 40.6333 51.0899 39.8545C50.6303 39.0461 50.0906 38.3422 49.4849 37.7629C48.8516 37.157 48.0762 36.6698 47.1795 36.3144C46.2859 35.9609 45.2956 35.7818 44.2363 35.7818C43.8203 35.7818 43.418 35.9525 42.641 36.4583C42.1628 36.7702 41.6035 37.1308 40.9792 37.5297C40.4453 37.8699 39.7221 38.1886 38.8289 38.4771C37.9574 38.7591 37.0725 38.9021 36.1991 38.9021C35.3258 38.9021 34.4412 38.7591 33.5688 38.4771C32.6765 38.1889 31.9533 37.8702 31.42 37.5301C30.8016 37.1349 30.242 36.7742 29.7566 36.458C28.9806 35.9522 28.5779 35.7815 28.1619 35.7815C27.1023 35.7815 26.1124 35.9609 25.2191 36.3147C24.3231 36.6694 23.5473 37.1566 22.9134 37.7632C22.308 38.3428 21.7679 39.0464 21.309 39.8545C20.8666 40.6333 20.5084 41.4457 20.2448 42.2694C19.9901 43.0656 19.7771 43.9365 19.6117 44.8581C19.4479 45.7715 19.3366 46.6381 19.2815 47.434C19.2274 48.2138 19.2001 49.0231 19.2001 49.8405C19.2001 51.9678 19.8763 53.69 21.2098 54.9601C22.5269 56.2134 24.2696 56.8492 26.3888 56.8492H46.0114C48.1306 56.8492 49.8726 56.2137 51.19 54.9601C52.5238 53.6909 53.2001 51.9684 53.2001 49.8402C53.1998 49.0191 53.1721 48.2091 53.1177 47.4331Z" fill="#00A9A8"/>
</svg>
