<svg width="24" height="24" viewBox="0 0 24 24" fill="none" xmlns="http://www.w3.org/2000/svg">
<path d="M21.7517 12.0012C21.7503 10.6881 21.2281 9.42916 20.2997 8.50062C19.3712 7.57208 18.1123 7.04978 16.7992 7.0483H13.36C13.0509 7.0483 12.7545 7.17108 12.5359 7.38963C12.3174 7.60819 12.1946 7.90461 12.1946 8.21369C12.1946 8.52277 12.3174 8.81919 12.5359 9.03774C12.7545 9.25629 13.0509 9.37907 13.36 9.37907H16.7992C17.4443 9.37886 18.0667 9.61647 18.5476 10.0464C19.0285 10.4764 19.3339 11.0686 19.4055 11.7096C19.4772 12.3507 19.31 12.9957 18.9359 13.5212C18.5618 14.0467 18.0071 14.4158 17.3779 14.558V14.4108C17.3773 14.3124 17.3509 14.216 17.3012 14.1311C17.2516 14.0463 17.1805 13.976 17.095 13.9274C17.0096 13.8787 16.9128 13.8534 16.8145 13.854C16.7162 13.8546 16.6198 13.8811 16.5349 13.9308L14.1978 15.2987C14.113 15.3484 14.0427 15.4195 13.9941 15.505C13.9454 15.5904 13.9201 15.6871 13.9208 15.7854C13.9214 15.8837 13.9478 15.9801 13.9975 16.065C14.0472 16.1498 14.1183 16.2201 14.2038 16.2687L16.5556 17.6108C16.641 17.6591 16.7376 17.6842 16.8357 17.6834C16.9338 17.6827 17.03 17.6562 17.1146 17.6065C17.1993 17.5569 17.2694 17.4859 17.318 17.4007C17.3666 17.3155 17.3919 17.219 17.3914 17.1208V16.9218C19.8444 16.6241 21.7517 14.5314 21.7517 12.0012V12.0012Z" fill="#00A9A8"/>
<path d="M10.6912 14.6233H7.20142C6.55237 14.6228 5.92659 14.3815 5.44509 13.9463C4.9636 13.5111 4.6606 12.9128 4.5947 12.2671C4.5288 11.6214 4.70468 10.9742 5.08832 10.4507C5.47196 9.92714 6.03611 9.56447 6.67166 9.43281V9.58604C6.67218 9.68436 6.69856 9.78081 6.74814 9.8657C6.79772 9.9506 6.86877 10.021 6.95414 10.0697C7.03952 10.1185 7.13622 10.1439 7.23453 10.1435C7.33285 10.143 7.42932 10.1168 7.51426 10.0672L9.85299 8.70245C9.9379 8.65292 10.0083 8.58191 10.057 8.49655C10.1058 8.4112 10.1313 8.31451 10.1308 8.21621C10.1304 8.11791 10.1041 8.02145 10.0545 7.93654C10.005 7.85163 9.93396 7.78126 9.84861 7.73249L7.49754 6.3892C7.41224 6.34092 7.31577 6.31588 7.21776 6.31657C7.11975 6.31727 7.02364 6.34367 6.93903 6.39314C6.85442 6.44262 6.78428 6.51343 6.73562 6.59851C6.68695 6.68359 6.66147 6.77995 6.66171 6.87796V7.07697C5.40241 7.21492 4.24386 7.83021 3.42435 8.79627C2.60485 9.76233 2.18671 11.0057 2.25594 12.2707C2.32517 13.5356 2.87651 14.7259 3.79656 15.5968C4.7166 16.4676 5.93538 16.9528 7.20221 16.9525H10.692C10.9973 16.9468 11.2882 16.8216 11.5021 16.6037C11.716 16.3858 11.8358 16.0926 11.8358 15.7873C11.8358 15.482 11.716 15.1888 11.5021 14.9709C11.2882 14.753 10.9973 14.6278 10.692 14.6221L10.6912 14.6233Z" fill="#00A9A8"/>
</svg>
