<svg width="90" height="68" viewBox="0 0 90 68" fill="none" xmlns="http://www.w3.org/2000/svg">
<path d="M65.3847 20.8698L51.7347 7.11981C51.3399 6.72212 50.8065 6.5 50.25 6.5H28.2C25.8795 6.5 24 8.39327 24 10.7308V57.2692C24 59.6067 25.8795 61.5 28.2 61.5H61.8C64.1205 61.5 66 59.6067 66 57.2692V22.3654C66 21.8048 65.7795 21.2675 65.3847 20.8698ZM51.3 46.6923H34.5C33.3408 46.6923 32.4 45.7446 32.4 44.5769C32.4 43.4092 33.3408 42.4615 34.5 42.4615H51.3C52.4592 42.4615 53.4 43.4092 53.4 44.5769C53.4 45.7446 52.4592 46.6923 51.3 46.6923ZM55.5 38.2308H34.5C33.3408 38.2308 32.4 37.2831 32.4 36.1154C32.4 34.9477 33.3408 34 34.5 34H55.5C56.6592 34 57.6 34.9477 57.6 36.1154C57.6 37.2831 56.6592 38.2308 55.5 38.2308ZM51.3 23.4231C50.1408 23.4231 49.2 22.4754 49.2 21.3077V10.5277L62.0016 23.4231H51.3Z" fill="#00A9A8"/>
</svg>
