<svg width="25" height="24" viewBox="0 0 25 24" fill="none" xmlns="http://www.w3.org/2000/svg">
<path d="M20.0901 16.3038C19.4719 16.3038 18.8976 15.9968 18.5545 15.4819L17.7494 14.2744C17.027 15.8577 15.5345 17.0644 13.7746 17.423C13.7608 17.4254 13.7475 17.4284 13.7343 17.432C13.0386 17.569 12.3123 17.5702 11.5829 17.4309C9.64484 17.0422 8.04658 15.6694 7.40436 13.843H7.70418C8.19371 13.843 8.4884 13.2958 8.21602 12.8866L5.75524 9.19541C5.52695 8.85297 4.95979 8.85297 4.73154 9.19541L2.27076 12.8866C1.99932 13.2924 2.29041 13.8431 2.7826 13.8431H3.58285C4.42408 17.9684 8.14535 21.2254 12.7037 21.2254C15.1978 21.2254 17.6607 20.1941 19.4258 18.3217C20.0457 17.6582 20.5649 16.8993 20.973 16.0776C20.7061 16.2231 20.4042 16.3038 20.0901 16.3038Z" fill="#00A9A8"/>
<path d="M22.551 10.1518H21.7514C20.7986 5.46215 16.2667 2.22458 11.4245 2.85241C8.20379 3.32605 5.6785 5.30014 4.37158 7.93974C5.17196 7.54722 6.26244 7.73741 6.77912 8.51293L7.58745 9.72544C8.29629 8.17422 9.74471 6.98506 11.4595 6.60086C14.3355 5.9972 17.0153 7.59045 17.9274 10.1518H17.6294C17.1372 10.1518 16.8461 10.7024 17.1176 11.1083L19.5783 14.7994C19.8216 15.1644 20.3588 15.1644 20.602 14.7994L23.0628 11.1083C23.3353 10.6991 23.0405 10.1518 22.551 10.1518Z" fill="#00A9A8"/>
<path d="M13.9722 11.9235C13.6243 11.5744 13.1605 11.3822 12.6667 11.3822C12.502 11.3822 12.3476 11.3185 12.2311 11.2014C11.9952 10.9667 11.9874 10.5751 12.2323 10.3314C12.463 10.0995 12.8703 10.0995 13.1011 10.3314C13.3408 10.573 13.7301 10.5717 13.971 10.3326C14.2119 10.0929 14.2119 9.70298 13.9722 9.46266C13.7768 9.26665 13.5368 9.13979 13.2819 9.05398V8.30615C13.2819 7.96617 13.0067 7.69099 12.6667 7.69099C12.3267 7.69099 12.0515 7.96617 12.0515 8.30619V9.05386C11.7968 9.13963 11.5572 9.26612 11.3624 9.46147C10.6386 10.1828 10.6404 11.3529 11.3612 12.0713C11.709 12.4203 12.1729 12.6125 12.6667 12.6125C12.8313 12.6125 12.9857 12.6762 13.1022 12.7934C13.3381 13.028 13.346 13.4196 13.1011 13.6633C12.8703 13.8952 12.463 13.8952 12.2323 13.6633C11.992 13.4224 11.6027 13.4224 11.3624 13.6621C11.1214 13.9019 11.1214 14.2918 11.3612 14.5321C11.5585 14.7301 11.7953 14.8709 12.0515 14.9615V15.6885C12.0515 16.0286 12.3266 16.3037 12.6667 16.3037C13.0067 16.3037 13.2819 16.0286 13.2819 15.6885V14.9617C13.5379 14.8712 13.7744 14.7305 13.971 14.5333C14.6948 13.812 14.693 12.6418 13.9722 11.9235Z" fill="#00A9A8"/>
</svg>
