<svg width="73" height="73" viewBox="0 0 73 73" fill="none" xmlns="http://www.w3.org/2000/svg">
<path d="M47.1814 29.7621C40.4931 29.7621 35.0524 35.2027 35.0524 41.891C35.0524 48.5792 40.493 54.0199 47.1813 54.0199C53.8695 54.0199 59.4 48.5792 59.4 41.891C59.4 35.2027 53.8696 29.7621 47.1814 29.7621ZM48.5644 48.3858C48.5528 48.3901 48.5405 48.3881 48.5289 48.3922V49.9769C48.5289 50.7218 47.9261 51.3246 47.1812 51.3246C46.4363 51.3246 45.8335 50.7218 45.8335 49.9769V48.383C44.9459 48.0831 44.0955 47.514 43.3684 46.6473C42.8894 46.0774 42.963 45.2272 43.5343 44.7495C44.1042 44.2704 44.957 44.3441 45.4321 44.9153C46.1454 45.7642 46.9522 46.1011 47.6418 45.8537C48.1722 45.6602 48.5289 45.1509 48.5289 44.5863C48.5289 43.8428 47.9247 43.2386 47.1812 43.2386C44.9518 43.2386 43.1382 41.425 43.1382 39.1957C43.1382 37.5677 44.1069 36.1055 45.6059 35.4713C45.6801 35.4398 45.7588 35.4416 45.8336 35.4148V33.8051C45.8336 33.0602 46.4364 32.4574 47.1813 32.4574C47.9262 32.4574 48.5289 33.0602 48.5289 33.8051V35.4173C49.2268 35.653 49.9073 36.0278 50.5149 36.6162C51.0492 37.1335 51.0624 37.9863 50.5438 38.5219C50.0266 39.0563 49.1724 39.0681 48.6381 38.5509C47.9827 37.9152 47.2576 37.6967 46.6574 37.9534C46.1573 38.1653 45.8335 38.6522 45.8335 39.1958C45.8335 39.9393 46.4376 40.5435 47.1812 40.5435C49.4106 40.5435 51.2241 42.3571 51.2241 44.5864C51.2243 46.2801 50.1556 47.8067 48.5644 48.3858Z" fill="#00A9A8"/>
<path d="M14.7477 43.2386C14.0028 43.2386 13.4 43.8414 13.4 44.5863V58.1527C13.4 58.8976 14.0028 59.5004 14.7477 59.5004H18.7906V43.2386H14.7477Z" fill="#00A9A8"/>
<path d="M45.3625 21.9113L35.9289 13.8253C35.4261 13.391 34.6786 13.391 34.1758 13.8253L24.7423 21.9113C24.3133 22.2772 24.1593 22.872 24.3553 23.4011C24.5501 23.9302 25.0541 24.2816 25.6188 24.2816H29.6617C29.6617 35.9326 29.6617 47.8487 29.6617 59.5004C33.1335 59.5004 35.5337 59.5004 39.0954 59.5004C39.8403 59.5004 40.4431 58.8977 40.4431 58.1527V55.0788C35.6505 52.6198 32.3571 47.6379 32.3571 41.8911C32.3571 36.1443 35.6506 31.1623 40.4431 28.7033V24.2817H44.486C45.0506 24.2817 45.5547 23.9303 45.7495 23.4012C45.9456 22.872 45.7916 22.2772 45.3625 21.9113Z" fill="#00A9A8"/>
<path d="M22.9234 32.4574C22.1785 32.4574 21.5757 33.0602 21.5757 33.8051V43.2387V59.5003C23.5443 59.5003 25.0551 59.5003 26.9664 59.5003V32.4574H22.9234Z" fill="#00A9A8"/>
</svg>
