<svg width="73" height="73" viewBox="0 0 73 73" fill="none" xmlns="http://www.w3.org/2000/svg">
<path d="M56.8408 46.6948H55.4582V44.9489C55.4582 40.8153 52.0953 37.4526 47.9618 37.4526H38.5024V30.9962H42.6493C44.6945 30.9962 46.3584 29.3323 46.3584 27.287V18.2835C46.3584 16.2383 44.6945 14.5743 42.6493 14.5743H31.5697C29.5245 14.5743 27.8606 16.2382 27.8606 18.2835V27.2869C27.8606 29.3321 29.5245 30.9961 31.5697 30.9961H35.7167V37.4525H25.7C21.5664 37.4525 18.2036 40.8153 18.2036 44.9489V46.6947H16.7591C14.7138 46.6948 13.0499 48.3587 13.0499 50.4039V54.7166C13.0499 56.7618 14.7138 58.4257 16.7591 58.4257H22.4337C24.4789 58.4257 26.1428 56.7618 26.1428 54.7166V50.4039C26.1428 48.3587 24.4789 46.6948 22.4337 46.6948H20.9893V44.9489C20.9893 42.3516 23.1025 40.2384 25.6999 40.2384H35.7166V46.6948H34.2722C32.2269 46.6948 30.563 48.3587 30.563 50.4039V54.7166C30.563 56.7618 32.2269 58.4257 34.2722 58.4257H39.9468C41.992 58.4257 43.6558 56.7618 43.6558 54.7166V50.4039C43.6558 48.3587 41.992 46.6948 39.9468 46.6948H38.5024V40.2384H47.9618C50.5593 40.2384 52.6725 42.3516 52.6725 44.9489V46.6948H51.1662C49.121 46.6948 47.4571 48.3587 47.4571 50.4039V54.7166C47.4571 56.7618 49.121 58.4257 51.1662 58.4257H56.8407C58.886 58.4257 60.5499 56.7618 60.5499 54.7166V50.4039C60.55 48.3587 58.8861 46.6948 56.8408 46.6948Z" fill="#00A9A8"/>
</svg>
