<svg width="25" height="24" viewBox="0 0 25 24" fill="none" xmlns="http://www.w3.org/2000/svg">
<path d="M6.86597 14.6367V19.3828C6.86597 19.6743 7.10183 19.9102 7.39331 19.9102H9.50269C9.79417 19.9102 10.03 19.6743 10.03 19.3828V14.6826C9.85681 14.6541 9.6816 14.6367 9.50269 14.6367H6.86597Z" fill="#00A9A8"/>
<path d="M20.6121 9.46043V12.4302C21.2246 12.2118 21.6667 11.6319 21.6667 10.9453C21.6667 10.2587 21.2246 9.67885 20.6121 9.46043Z" fill="#00A9A8"/>
<path d="M6.30347 13.582H8.97534V8.30859H6.30347C4.84965 8.30859 3.66675 9.4915 3.66675 10.9453C3.66675 12.3991 4.84965 13.582 6.30347 13.582Z" fill="#00A9A8"/>
<path d="M19.5574 17.2734V4.61719C19.5574 4.32571 19.3215 4.08984 19.03 4.08984C17.0128 4.08984 15.4327 5.21354 13.9388 6.30015C12.6712 7.22209 11.4646 8.09309 10.03 8.2708V13.6198C11.4646 13.7976 12.6712 14.6685 13.9388 15.5905C15.4327 16.6771 17.0128 17.8008 19.03 17.8008C19.3215 17.8008 19.5574 17.5649 19.5574 17.2734Z" fill="#00A9A8"/>
</svg>
