<svg width="72" height="73" viewBox="0 0 72 73" fill="none" xmlns="http://www.w3.org/2000/svg">
<path d="M22.1511 47.6812C22.1511 46.9072 21.5366 46.2804 20.7778 46.2804H13.9114C13.1526 46.2804 12.5381 46.9072 12.5381 47.6812V58.9806C12.5381 59.7545 13.1526 60.3813 13.9114 60.3813H20.7778C21.5366 60.3813 22.1511 59.7545 22.1511 58.9806V47.6812Z" fill="#00A9A8"/>
<path d="M33.229 37.8759H26.3625C25.6038 37.8759 24.9893 38.5027 24.9893 39.2766V58.9806C24.9893 59.7545 25.6038 60.3813 26.3625 60.3813H33.229C33.9877 60.3813 34.6023 59.7545 34.6023 58.9806V39.2766C34.6023 38.5027 33.9877 37.8759 33.229 37.8759Z" fill="#00A9A8"/>
<path d="M45.5886 35.0743H38.7222C37.9634 35.0743 37.3489 35.7012 37.3489 36.4751V58.9806C37.3489 59.7545 37.9634 60.3813 38.7222 60.3813H45.5886C46.3474 60.3813 46.9619 59.7545 46.9619 58.9806V36.4751C46.9619 35.7012 46.3474 35.0743 45.5886 35.0743Z" fill="#00A9A8"/>
<path d="M58.0398 23.8683H51.1733C50.4146 23.8683 49.8 24.4951 49.8 25.269V58.9806C49.8 59.7545 50.4146 60.3813 51.1733 60.3813H58.0398C58.7985 60.3813 59.4131 59.7545 59.4131 58.9806V25.269C59.4131 24.4951 58.7985 23.8683 58.0398 23.8683Z" fill="#00A9A8"/>
<path d="M17.4362 43.3855C19.7078 43.3855 21.556 41.5003 21.556 39.1832C21.556 38.7896 21.4856 38.4163 21.3861 38.055L26.7368 34.2024C27.4085 34.6888 28.2245 34.981 29.1091 34.981C31.1934 34.981 32.9026 33.3888 33.1735 31.3372L38.6524 30.1606C39.3776 31.3664 40.6702 32.1794 42.1554 32.1794C44.427 32.1794 46.2753 30.2943 46.2753 27.9772C46.2753 27.4169 46.1625 26.884 45.9669 26.3949L52.5395 20.4358C53.1288 20.7677 53.7955 20.9734 54.515 20.9734C56.7867 20.9734 58.6349 19.0882 58.6349 16.7711C58.6349 14.454 56.7867 12.5688 54.515 12.5688C52.2434 12.5688 50.3951 14.454 50.3951 16.7711C50.3951 17.3314 50.5079 17.8643 50.7036 18.3534L44.1309 24.3124C43.5416 23.9806 42.8749 23.7749 42.1554 23.7749C40.0711 23.7749 38.362 25.3671 38.091 27.4186L32.6122 28.5953C31.8869 27.3894 30.5943 26.5764 29.1091 26.5764C26.8375 26.5764 24.9893 28.4616 24.9893 30.7787C24.9893 31.1724 25.0596 31.5456 25.1592 31.9069L19.8085 35.7595C19.1367 35.2731 18.3208 34.981 17.4362 34.981C15.1645 34.981 13.3163 36.8661 13.3163 39.1832C13.3163 41.5003 15.1645 43.3855 17.4362 43.3855Z" fill="#00A9A8"/>
</svg>
