<svg width="32" height="32" viewBox="0 0 32 32" fill="none" xmlns="http://www.w3.org/2000/svg">
<path d="M9.85709 28.5714C9.53566 28.5714 9.11602 28.5119 8.59816 28.3929C8.08031 28.2738 7.67257 28.1488 7.37495 28.0179C6.77971 27.7679 6.14876 27.0417 5.48209 25.8393C4.87495 24.7203 4.57138 23.6131 4.57138 22.5179C4.57138 22.1964 4.59221 21.8839 4.63388 21.5804C4.67554 21.2768 4.74995 20.9345 4.85709 20.5536C4.96423 20.1726 5.05054 19.8899 5.11602 19.7054C5.1815 19.5209 5.30352 19.1905 5.48209 18.7143C5.66066 18.2381 5.76781 17.9464 5.80352 17.8393C6.22019 16.6726 6.71423 15.631 7.28566 14.7143C8.22614 13.1905 9.50888 11.6161 11.1339 9.99109C12.7589 8.36609 14.3333 7.08335 15.8571 6.14287C16.7738 5.57145 17.8154 5.0774 18.9821 4.66073C19.0892 4.62502 19.3809 4.51787 19.8571 4.3393C20.3333 4.16073 20.6636 4.03871 20.8482 3.97323C21.0327 3.90776 21.3154 3.82145 21.6964 3.7143C22.0773 3.60716 22.4196 3.53276 22.7232 3.49109C23.0267 3.44942 23.3392 3.42859 23.6607 3.42859C24.7559 3.42859 25.863 3.73216 26.9821 4.3393C28.1845 5.00597 28.9107 5.63692 29.1607 6.23216C29.2916 6.52978 29.4166 6.93752 29.5357 7.45537C29.6547 7.97323 29.7142 8.39287 29.7142 8.7143C29.7142 8.88097 29.6964 9.00597 29.6607 9.0893C29.5892 9.30359 29.1369 9.61907 28.3035 10.0357C28.0773 10.1667 27.7559 10.3453 27.3392 10.5714C26.9226 10.7976 26.5446 11.006 26.2053 11.1964C25.866 11.3869 25.5476 11.5714 25.2499 11.75C25.2023 11.7857 25.0535 11.8899 24.8035 12.0625C24.5535 12.2351 24.3422 12.3631 24.1696 12.4464C23.997 12.5298 23.8273 12.5714 23.6607 12.5714C23.4226 12.5714 23.1249 12.4018 22.7678 12.0625C22.4107 11.7232 22.0833 11.3542 21.7857 10.9554C21.488 10.5566 21.1726 10.1875 20.8392 9.84823C20.5059 9.50895 20.2321 9.3393 20.0178 9.3393C19.9107 9.3393 19.7767 9.36906 19.616 9.42859C19.4553 9.48811 19.3333 9.53871 19.2499 9.58037C19.1666 9.62204 19.0238 9.70537 18.8214 9.83037C18.619 9.95537 18.5059 10.0238 18.4821 10.0357C16.8511 10.9405 15.4523 11.9762 14.2857 13.1429C13.119 14.3095 12.0833 15.7084 11.1785 17.3393C11.1666 17.3631 11.0982 17.4762 10.9732 17.6786C10.8482 17.881 10.7648 18.0238 10.7232 18.1072C10.6815 18.1905 10.6309 18.3125 10.5714 18.4732C10.5119 18.6339 10.4821 18.7679 10.4821 18.875C10.4821 19.0893 10.6517 19.3631 10.991 19.6964C11.3303 20.0298 11.6994 20.3453 12.0982 20.6429C12.497 20.9405 12.866 21.2679 13.2053 21.625C13.5446 21.9822 13.7142 22.2798 13.7142 22.5179C13.7142 22.6845 13.6726 22.8542 13.5892 23.0268C13.5059 23.1994 13.3779 23.4107 13.2053 23.6607C13.0327 23.9107 12.9285 24.0595 12.8928 24.1072C12.7142 24.4048 12.5297 24.7232 12.3392 25.0625C12.1488 25.4018 11.9404 25.7798 11.7142 26.1964C11.488 26.6131 11.3095 26.9345 11.1785 27.1607C10.7619 27.9941 10.4464 28.4464 10.2321 28.5179C10.1488 28.5536 10.0238 28.5714 9.85709 28.5714Z" fill="#00A9A8"/>
</svg>
