<svg width="32" height="32" viewBox="0 0 32 32" fill="none" xmlns="http://www.w3.org/2000/svg">
<path d="M20.25 11.8333C20.25 10.6832 19.835 9.70117 19.0049 8.88737C18.1748 8.07357 17.1732 7.66667 16 7.66667C14.8268 7.66667 13.8252 8.07357 12.9951 8.88737C12.165 9.70117 11.75 10.6832 11.75 11.8333C11.75 12.9835 12.165 13.9655 12.9951 14.7793C13.8252 15.5931 14.8268 16 16 16C17.1732 16 18.1748 15.5931 19.0049 14.7793C19.835 13.9655 20.25 12.9835 20.25 11.8333ZM24.5 11.8333C24.5 13.0161 24.3174 13.9872 23.9521 14.7467L17.9092 27.3444C17.7321 27.7025 17.4692 27.9846 17.1206 28.1908C16.772 28.3969 16.3984 28.5 16 28.5C15.6016 28.5 15.228 28.3969 14.8794 28.1908C14.5308 27.9846 14.2734 27.7025 14.1074 27.3444L8.04785 14.7467C7.68262 13.9872 7.5 13.0161 7.5 11.8333C7.5 9.53299 8.33008 7.56901 9.99023 5.94141C11.6504 4.3138 13.6536 3.5 16 3.5C18.3464 3.5 20.3496 4.3138 22.0098 5.94141C23.6699 7.56901 24.5 9.53299 24.5 11.8333Z" fill="#00A9A8"/>
</svg>
