<svg width="24" height="24" viewBox="0 0 24 24" fill="none" xmlns="http://www.w3.org/2000/svg">
<path d="M10.8134 12.6216C10.8134 12.1214 10.4079 11.7159 9.90766 11.7159H8.96631C8.46605 11.7159 8.06055 12.1214 8.06055 12.6216V18.9311C8.06055 19.4314 8.46605 19.8369 8.96631 19.8369H9.90766C10.4079 19.8369 10.8134 19.4314 10.8134 18.9311V12.6216Z" fill="#00A9A8"/>
<path d="M6.75288 14.8239C6.75288 14.2857 6.31655 13.8494 5.77829 13.8494H4.97459C4.43633 13.8494 4 14.2857 4 14.8239V18.8623C4 19.4005 4.43633 19.8369 4.97459 19.8369H5.77829C6.31655 19.8369 6.75288 19.4005 6.75288 18.8623V14.8239Z" fill="#00A9A8"/>
<path d="M14.8051 10.2129C14.8051 9.71262 14.3996 9.30712 13.8994 9.30712H12.958C12.4577 9.30712 12.0522 9.71262 12.0522 10.2129V18.9311C12.0522 19.4314 12.4577 19.8369 12.958 19.8369H13.8994C14.3996 19.8369 14.8051 19.4314 14.8051 18.9311V10.2129Z" fill="#00A9A8"/>
<path d="M19.8534 6.73612L18.0876 4.47091C17.9352 4.27532 17.7184 4.16314 17.4928 4.16314C17.2673 4.16314 17.0505 4.27532 16.8981 4.47091L15.1322 6.73605C14.9808 6.93033 14.9436 7.14361 15.0303 7.3211C15.1248 7.51463 15.3516 7.63011 15.6368 7.63011L16.1128 7.63142V18.9569C16.1128 19.4563 16.5196 19.8369 17.0191 19.8369H17.9667C18.4662 19.8369 18.8656 19.4563 18.8656 18.9569V7.62358L19.3445 7.63018C19.6303 7.63018 19.8591 7.51463 19.9536 7.32117C20.0404 7.14361 20.0049 6.9304 19.8534 6.73612Z" fill="#00A9A8"/>
</svg>
