<svg width="25" height="24" viewBox="0 0 25 24" fill="none" xmlns="http://www.w3.org/2000/svg">
<path d="M13.9449 14.6485C13.8067 14.6485 13.6685 14.7742 13.6685 15.1952C13.6685 15.6161 13.8067 15.7418 13.9449 15.7418C14.0831 15.7418 14.2213 15.6161 14.2213 15.1952C14.2213 14.7742 14.0831 14.6485 13.9449 14.6485Z" fill="#00A9A8"/>
<path d="M10.7218 12.5751C10.5835 12.5751 10.4453 12.7008 10.4453 13.1218C10.4453 13.5427 10.5835 13.6684 10.7218 13.6684C10.86 13.6684 10.9982 13.5427 10.9982 13.1218C10.9982 12.7008 10.86 12.5751 10.7218 12.5751Z" fill="#00A9A8"/>
<path d="M17.4521 9.28896C15.9699 7.54095 15.0891 6.00218 14.6111 5.01909C14.0934 3.95426 13.9238 3.29397 13.9225 3.28871L13.7684 2.66666L13.218 2.92877C13.1537 2.95938 11.6332 3.69981 10.7812 5.51927C10.3535 6.43266 10.268 7.44962 10.2715 8.14184C10.2736 8.5447 10.0063 8.8945 9.63597 8.97357C9.37631 9.02897 9.10921 8.94277 8.9218 8.74266L7.89668 7.64805L7.54404 8.16728C7.50744 8.22117 6.64563 9.49028 6.48874 9.74385C5.72259 10.9822 5.32309 12.4248 5.33345 13.9156C5.34732 15.9067 6.08063 17.7722 7.39828 19.1684C8.71587 20.5645 10.4685 21.3333 12.3333 21.3333C16.1931 21.3333 19.3333 17.9803 19.3333 13.8589C19.3333 12.3645 18.6476 10.6989 17.4521 9.28896ZM14.0582 17.0518C13.3454 17.0518 12.8074 16.5492 12.8074 15.6516C12.8074 14.7612 13.3453 14.2514 14.0582 14.2514C14.771 14.2514 15.309 14.7612 15.309 15.6516C15.309 16.5492 14.771 17.0518 14.0582 17.0518ZM13.3723 11.9536H14.5087L11.2943 16.98H10.1578L13.3723 11.9536ZM9.35762 13.282C9.35762 12.3916 9.89559 11.8818 10.6084 11.8818C11.3213 11.8818 11.8592 12.3916 11.8592 13.282C11.8592 14.1796 11.3213 14.6822 10.6084 14.6822C9.89559 14.6822 9.35762 14.1796 9.35762 13.282Z" fill="#00A9A8"/>
</svg>
