<svg width="72" height="72" viewBox="0 0 72 72" fill="none" xmlns="http://www.w3.org/2000/svg">
<g clip-path="url(#clip0_1095_308)">
<path d="M63 9H60.0002V2.99982C60.0002 1.34418 58.656 0 56.9998 0H54C52.3438 0 51.0002 1.34418 51.0002 2.99982V9H20.9998V2.99982C20.9998 1.34418 19.6562 0 18 0H15.0002C13.344 0 11.9998 1.34418 11.9998 2.99982V9H9C4.03802 9 0 13.038 0 18V63C0 67.962 4.03802 72 9 72H63C67.962 72 72 67.962 72 63V18C72 13.038 67.962 9 63 9ZM65.9998 63C65.9998 64.6529 64.6529 65.9998 63 65.9998H9C7.34711 65.9998 6.00018 64.6529 6.00018 63V30.1201H65.9998V63Z" fill="#00A9A8"/>
</g>
<defs>
<clipPath id="clip0_1095_308">
<rect width="72" height="72" fill="white"/>
</clipPath>
</defs>
</svg>
