<svg width="90" height="68" viewBox="0 0 90 68" fill="none" xmlns="http://www.w3.org/2000/svg">
<path d="M71.4084 18.7525C62.9876 4.16718 44.3365 -0.830431 29.7523 7.59195C15.167 16.0116 10.1692 34.6619 18.5915 49.2467C27.0112 63.832 45.6617 68.8304 60.2461 60.4088C74.8316 51.9862 79.8317 33.3369 71.4084 18.7525ZM57.1973 55.1253C45.5308 61.8633 30.609 57.865 23.8729 46.1962C17.1352 34.5296 21.1349 19.6081 32.8018 12.8733C44.4691 6.13565 59.3901 10.1336 66.1266 21.8021C72.8633 33.4703 68.8648 48.3888 57.1973 55.1253ZM55.9778 32.7604L40.0097 23.4475C38.5546 22.598 37.3809 23.2772 37.389 24.9604L37.4708 43.4455C37.4782 45.1283 38.6663 45.8133 40.1257 44.9704L55.9715 35.8218C57.4294 34.9804 57.4325 33.61 55.9778 32.7604Z" fill="#00A9A8"/>
</svg>
