<svg version="1.2" xmlns="http://www.w3.org/2000/svg" viewBox="0 0 42 56" width="56" height="75">
	<title>image</title>
	<style>
		.s0 { fill: #00a9a8 } 
	</style>
	<path id="Layer" fill-rule="evenodd" class="s0" d="m42 16.4v34.9c0 2.3-1.9 4.2-4.2 4.2h-33.6c-2.3 0-4.2-1.9-4.2-4.2v-46.6c0-2.3 1.9-4.2 4.2-4.2h22.1c0.5 0 1 0.2 1.4 0.6l13.7 13.8c0.4 0.4 0.6 0.9 0.6 1.5zm-12.6 22.2c0-1.2-0.9-2.1-2.1-2.1h-16.8c-1.2 0-2.1 0.9-2.1 2.1 0 1.1 0.9 2.1 2.1 2.1h16.8c1.2 0 2.1-1 2.1-2.1zm4.2-8.5c0-1.2-0.9-2.1-2.1-2.1h-21c-1.2 0-2.1 0.9-2.1 2.1 0 1.2 0.9 2.1 2.1 2.1h21c1.2 0 2.1-0.9 2.1-2.1zm4.4-12.7l-12.8-12.9v10.8c0 1.2 0.9 2.1 2.1 2.1z"/>
</svg>