<svg width="73" height="73" viewBox="0 0 73 73" fill="none" xmlns="http://www.w3.org/2000/svg">
<path d="M36.5958 38.4229C28.6164 38.4229 21.9297 36.0788 20.104 32.9184C19.7831 33.4747 19.5957 34.0527 19.5957 34.6526V39.8245C19.5957 43.82 27.2091 47.0617 36.5958 47.0617C45.9883 47.0617 53.6046 43.82 53.6046 39.8245V34.6526C53.6046 34.0527 53.4144 33.4747 53.0905 32.9184C51.2648 36.0774 44.5839 38.4229 36.5958 38.4229Z" fill="#00A9A8"/>
<path d="M36.5958 49.1067C28.6164 49.1067 21.9297 46.7596 20.104 43.605C19.7831 44.1584 19.5957 44.7364 19.5957 45.3348V50.5111C19.5957 54.5081 27.2091 57.7483 36.5958 57.7483C45.9883 57.7483 53.6046 54.5095 53.6046 50.5111V45.3348C53.6046 44.7364 53.4144 44.1584 53.0905 43.6065C51.2648 46.7596 44.5839 49.1067 36.5958 49.1067Z" fill="#00A9A8"/>
<path d="M53.1399 22.5746C52.8058 25.5026 45.541 27.8453 36.5958 27.8453C27.655 27.8453 20.3902 25.5026 20.0576 22.5761C19.7656 23.1076 19.5957 23.6624 19.5957 24.2332V29.4052C19.5957 33.4021 27.2091 36.6424 36.5958 36.6424C45.9883 36.6424 53.6046 33.4036 53.6046 29.4052V24.2332C53.6046 23.6624 53.4318 23.1076 53.1399 22.5746Z" fill="#00A9A8"/>
<path d="M36.5958 26.2041C45.7502 26.2041 53.1675 23.7539 53.1675 20.7272C53.1675 17.7033 45.7502 15.2517 36.5958 15.2517C27.4473 15.2532 20.0271 17.7048 20.0271 20.7286C20.0271 23.7539 27.4473 26.2041 36.5958 26.2041Z" fill="#00A9A8"/>
</svg>
