<svg width="90" height="68" viewBox="0 0 90 68" fill="none" xmlns="http://www.w3.org/2000/svg">
<path d="M59.5837 27H42.667V36.3333H59.5837C60.5403 36.3333 61.3337 35.54 61.3337 34.5833V28.75C61.3337 27.7933 60.5403 27 59.5837 27ZM28.667 28.75V34.5833C28.667 35.54 29.4603 36.3333 30.417 36.3333H38.0003V27H30.417C29.4603 27 28.667 27.7933 28.667 28.75Z" fill="#00A9A8"/>
<path d="M59.5837 41H42.667V50.3333H59.5837C60.5403 50.3333 61.3337 49.54 61.3337 48.5833V42.75C61.3337 41.7933 60.5403 41 59.5837 41ZM28.667 42.75V48.5833C28.667 49.54 29.4603 50.3333 30.417 50.3333H38.0003V41H30.417C29.4603 41 28.667 41.7933 28.667 42.75Z" fill="#00A9A8"/>
<path d="M66 8.33331H24C20.1407 8.33331 17 11.474 17 15.3333V52.6666C17 56.526 20.1407 59.6666 24 59.6666H66C69.8593 59.6666 73 56.526 73 52.6666V15.3333C73 11.474 69.8593 8.33331 66 8.33331ZM66 55H24C22.7143 55 21.6667 53.9547 21.6667 52.6666V20H68.3333V52.6666C68.3333 53.9547 67.2857 55 66 55Z" fill="#00A9A8"/>
</svg>
