<svg width="24" height="24" viewBox="0 0 24 24" fill="none" xmlns="http://www.w3.org/2000/svg">
<path d="M4.00025 7.22268C3.99914 6.91512 4.24076 6.91955 4.24076 6.91955C5.26265 6.91955 13.1097 6.91955 14.4791 6.92066C14.9252 6.91955 15.2139 6.92066 15.2139 6.92066C15.2139 6.92066 15.2139 5.85554 15.2139 5.18554C15.2139 4.51444 15.7171 5.02206 15.7171 5.02206C15.7171 5.02206 19.4827 7.92814 19.8801 8.32438C20.1638 8.61144 19.8463 8.88409 19.8463 8.88409L15.8124 12.29C15.8124 12.29 15.332 12.7954 15.3331 12.2479C15.3342 11.696 15.3331 10.3676 15.3331 10.3676C15.3331 10.3676 15.0106 10.3676 14.5146 10.3654C13.0964 10.3676 5.33636 10.3654 4.28509 10.3654C4.28509 10.3654 4.00025 10.4402 4.00025 10.0091C4.00025 9.57459 4.00025 7.53191 4.00025 7.22268Z" fill="#00A9A8"/>
<path d="M19.9982 13.8822C19.9993 13.5724 19.7577 13.5791 19.7577 13.5791C18.738 13.5791 10.8887 13.5791 9.51825 13.5802C9.07325 13.5791 8.78342 13.5802 8.78342 13.5802C8.78342 13.5802 8.78342 12.5139 8.78342 11.8439C8.78342 11.175 8.28134 11.6793 8.28134 11.6793C8.28134 11.6793 4.51684 14.5854 4.11839 14.9806C3.83355 15.2687 4.1522 15.5447 4.1522 15.5447L8.18491 18.9507C8.18491 18.9507 8.66372 19.4549 8.66372 18.9052C8.6615 18.3533 8.66372 17.026 8.66372 17.026C8.66372 17.026 8.98625 17.026 9.48334 17.0227C10.9015 17.026 18.6627 17.0227 19.7117 17.0227C19.7117 17.0227 19.9988 17.0986 19.9999 16.6652C19.9982 16.2324 19.9982 14.192 19.9982 13.8822Z" fill="#00A9A8"/>
</svg>
