<svg width="25" height="24" viewBox="0 0 25 24" fill="none" xmlns="http://www.w3.org/2000/svg">
<path d="M12.3331 10.4529C13.8389 10.4529 15.0596 9.2322 15.0596 7.72643C15.0596 6.22066 13.8389 5 12.3331 5C10.8274 5 9.60669 6.22066 9.60669 7.72643C9.60669 9.2322 10.8274 10.4529 12.3331 10.4529Z" fill="#00A9A8"/>
<path d="M17.8486 10.4528C18.8005 10.4528 19.5722 9.68114 19.5722 8.72922C19.5722 7.7773 18.8005 7.00562 17.8486 7.00562C16.8967 7.00562 16.125 7.7773 16.125 8.72922C16.125 9.68114 16.8967 10.4528 17.8486 10.4528Z" fill="#00A9A8"/>
<path d="M6.8176 10.4528C7.76952 10.4528 8.54121 9.68114 8.54121 8.72922C8.54121 7.7773 7.76952 7.00562 6.8176 7.00562C5.86568 7.00562 5.09399 7.7773 5.09399 8.72922C5.09399 9.68114 5.86568 10.4528 6.8176 10.4528Z" fill="#00A9A8"/>
<path d="M8.51583 12.0007C7.83736 11.4448 7.22291 11.5184 6.43842 11.5184C5.26511 11.5184 4.31055 12.4673 4.31055 13.6334V17.0558C4.31055 17.5623 4.7239 17.974 5.23221 17.974C7.4267 17.974 7.16233 18.0138 7.16233 17.8794C7.16233 15.4543 6.87508 13.6758 8.51583 12.0007Z" fill="#00A9A8"/>
<path d="M13.0793 11.5309C11.7091 11.4166 10.518 11.5322 9.49074 12.3801C7.77162 13.7571 8.10246 15.6112 8.10246 17.8794C8.10246 18.4795 8.59071 18.9769 9.19993 18.9769C15.8149 18.9769 16.0781 19.1902 16.4704 18.3216C16.5991 18.0278 16.5638 18.1212 16.5638 15.3109C16.5638 13.0788 14.6311 11.5309 13.0793 11.5309Z" fill="#00A9A8"/>
<path d="M18.2278 11.5183C17.439 11.5183 16.828 11.4455 16.1504 12.0006C17.7789 13.6633 17.5039 15.3204 17.5039 17.8794C17.5039 18.0146 17.2844 17.974 19.4011 17.974C19.9276 17.974 20.3557 17.5475 20.3557 17.0232V13.6333C20.3557 12.4673 19.4011 11.5183 18.2278 11.5183Z" fill="#00A9A8"/>
</svg>
