<svg width="25" height="24" viewBox="0 0 25 24" fill="none" xmlns="http://www.w3.org/2000/svg">
<path d="M22.4935 2.17317C22.2625 1.9425 21.8879 1.9425 21.6568 2.17317L19.7571 4.07293L20.5938 4.90962L22.4935 3.00986C22.7246 2.77884 22.7246 2.40427 22.4935 2.17317Z" fill="#00A9A8"/>
<path d="M13.38 4.21601L3.09111 14.5053C2.52173 15.0747 2.52821 15.9909 3.09111 16.553L8.11373 21.5756C8.67768 22.1404 9.59395 22.143 10.1613 21.5756C20.9659 10.7163 20.5528 11.3209 20.6151 10.9704L21.2653 7.2541L17.4126 3.40139C13.5603 4.11269 13.614 3.9821 13.38 4.21601ZM7.73204 18.3123C7.57407 18.1535 7.49981 17.8112 7.67567 17.6353C7.88044 17.4305 8.23283 17.6021 8.53842 17.2958C8.66053 17.1737 8.77128 16.9822 8.64803 16.8589C8.29768 16.5097 7.21176 17.664 6.34608 16.799C5.75463 16.2072 6.06967 15.4722 6.51956 15.0223C6.70093 14.8409 7.3204 14.2767 7.67368 14.63C7.79908 14.7554 7.94849 15.0743 7.74427 15.2786C7.67646 15.3464 7.59876 15.3713 7.51598 15.3973C7.13934 15.517 6.82851 15.8995 6.98406 16.055C7.2461 16.3159 8.36713 15.1966 9.28246 16.1113C10.501 17.3298 8.35717 18.9347 7.73204 18.3123ZM11.6896 15.0369L11.1916 14.7518L10.5521 15.3914L10.8364 15.8882C11.0524 16.2771 10.2153 16.7526 9.97446 16.348L8.47533 13.5334C8.26092 13.1228 8.92081 12.465 9.32898 12.6782L12.1522 14.1769H12.1526C12.55 14.4141 12.0742 15.2519 11.6896 15.0369ZM14.268 12.7645L13.1506 13.882C13.0468 13.9857 12.9254 14.0397 12.815 14.0397C12.5763 14.0397 12.6646 13.9711 10.3522 11.7039C10.0356 11.3864 10.726 10.6953 11.0434 11.0126L12.9112 12.8808L13.6478 12.1443C13.9533 11.8378 14.5725 12.46 14.268 12.7645ZM16.4106 10.6219L15.152 11.8805C14.9923 12.0402 14.7585 12.1066 14.6023 11.9515L12.3572 9.70594C12.2184 9.56715 12.2484 9.33609 12.4278 9.15667L13.6868 7.89767C14.0048 7.57966 14.6185 8.20642 14.307 8.51791L13.4289 9.39601L13.8871 9.85418L14.3477 9.39324C14.6603 9.08155 15.2278 9.64082 14.9115 9.95707L14.4509 10.4176L14.9127 10.8794L15.7904 10.0016C16.1023 9.68883 16.7288 10.3037 16.4106 10.6219ZM18.157 6.50972C18.4973 6.84961 18.4973 7.40083 18.157 7.74071C17.8171 8.08099 17.2659 8.08099 16.926 7.74071C16.5857 7.40083 16.5857 6.84961 16.926 6.50972C17.2659 6.16944 17.8171 6.16944 18.157 6.50972Z" fill="#00A9A8"/>
</svg>
