<svg width="72" height="72" viewBox="0 0 72 72" fill="none" xmlns="http://www.w3.org/2000/svg">
<g clip-path="url(#clip0_478_1167)">
<path d="M38.8125 52.5938C38.8125 54.1471 37.5533 55.4062 36 55.4062H19.4062C17.8529 55.4062 16.5938 54.1471 16.5938 52.5938C16.5938 51.0404 17.8529 49.7812 19.4062 49.7812H36C37.5533 49.7812 38.8125 51.0404 38.8125 52.5938ZM72 16.8961V49.8281C72 54.1464 70.3184 58.206 67.2649 61.2593L61.2593 67.265C58.206 70.3184 54.1464 72 49.8281 72H16.8961C7.55705 72 0 64.4421 0 55.1039V16.8961C0 7.55705 7.55789 0 16.8961 0H55.1039C64.443 0 72 7.55789 72 16.8961V16.8961ZM65.9977 52.6406H58.2656C55.164 52.6406 52.6406 55.164 52.6406 58.2656V65.9977C54.379 65.5196 55.9723 64.5969 57.2818 63.2876L63.2874 57.2818C64.5969 55.9723 65.5196 54.379 65.9977 52.6406V52.6406ZM66.375 16.8961C66.375 10.6663 61.3335 5.625 55.1039 5.625H16.8961C10.6663 5.625 5.625 10.6665 5.625 16.8961V55.1039C5.625 61.3337 10.6665 66.375 16.8961 66.375H47.0156V58.2656C47.0156 52.0623 52.0623 47.0156 58.2656 47.0156H66.375V16.8961ZM52.5938 33.1875H19.4062C17.8529 33.1875 16.5938 34.4467 16.5938 36C16.5938 37.5533 17.8529 38.8125 19.4062 38.8125H52.5938C54.1471 38.8125 55.4062 37.5533 55.4062 36C55.4062 34.4467 54.1471 33.1875 52.5938 33.1875V33.1875ZM52.5938 16.5938H19.4062C17.8529 16.5938 16.5938 17.8529 16.5938 19.4062C16.5938 20.9596 17.8529 22.2188 19.4062 22.2188H52.5938C54.1471 22.2188 55.4062 20.9596 55.4062 19.4062C55.4062 17.8529 54.1471 16.5938 52.5938 16.5938Z" fill="#00A9A8"/>
</g>
<defs>
<clipPath id="clip0_478_1167">
<rect width="72" height="72" fill="white"/>
</clipPath>
</defs>
</svg>
